# xmcd
# Track frame offsets:
# 150
# 12206
# 29045
# 40735
# 58236
# 69389
# 81334
# 97587
# 110004
# 119555
# 132256
# 148485
# 163092
# 179108
# 192593
# 206232
# 220240
# 231740
# 247037
#
# Disc length: 3465 seconds
# Revision: 0
# Processed by: cddbd v1.5.2PL0 Copyright (c) Steve Scherf et al.
# Submitted via: VisiTrax 2.11.1.266 - For more info visit www.synapsa.com
#
DISCID=350d8713
DTITLE=The Byrds - Sweetheart Of The Rodeo
DYEAR=1968
DGENRE=Country
TTITLE0=You Ain't Going Nowhere
TTITLE1=I Am A Pilgrim
TTITLE2=The Christian Life
TTITLE3=You Don't Miss Your Water
TTITLE4=You're Still On My Mind
TTITLE5=Pretty Boy Floyd
TTITLE6=Hickory Wind
TTITLE7=One Hundred Years From Now
TTITLE8=Blue Canadian Rockies
TTITLE9=Life In Prison
TTITLE10=Nothing Was Delivered
TTITLE11=You Got A Reputation
TTITLE12=Lazy Days
TTITLE13=Pretty Polly
TTITLE14=The Christian Life (Rehearsal - Take #11)
TTITLE15=Life In Prison (Rehearsal - Take #11)
TTITLE16=You're Still On My Mind (Rehearsal - Take #13)
TTITLE17=One Hundred Years From Now (Rehearsal - Take #2)
TTITLE18=All I Have Is Memories (Instrumental)
EXTD=
EXTT0=
EXTT1=
EXTT2=
EXTT3=
EXTT4=
EXTT5=
EXTT6=
EXTT7=
EXTT8=
EXTT9=
EXTT10=
EXTT11=
EXTT12=
EXTT13=
EXTT14=
EXTT15=
EXTT16=
EXTT17=
EXTT18=
PLAYORDER=
